<svg xmlns="http://www.w3.org/2000/svg" width="420" height="300" viewBox="0 0 420 300" role="img" aria-label="90s Anime style preview">
    <defs>
      <linearGradient id="g" x1="0" y1="0" x2="1" y2="1"><stop offset="0" stop-color="hsl(33 72% 58%)"/><stop offset="0.55" stop-color="hsl(118 64% 32%)"/><stop offset="1" stop-color="hsl(283 56% 18%)"/></linearGradient>
      <radialGradient id="r" cx="35%" cy="28%" r="70%"><stop offset="0" stop-color="hsl(203 86% 72%)" stop-opacity="0.95"/><stop offset="0.55" stop-color="hsl(33 72% 58%)" stop-opacity="0.35"/><stop offset="1" stop-color="hsl(283 56% 18%)" stop-opacity="0"/></radialGradient>
      <filter id="soft"><feGaussianBlur stdDeviation="8"/></filter>
      <filter id="grain"><feTurbulence type="fractalNoise" baseFrequency="0.85" numOctaves="3" stitchTiles="stitch"/><feColorMatrix type="saturate" values="0"/><feComponentTransfer><feFuncA type="table" tableValues="0 0.18"/></feComponentTransfer></filter>
    </defs>
    <rect width="420" height="300" rx="28" fill="url(#g)"/>
    <rect width="420" height="300" rx="28" fill="url(#r)"/>
  <circle cx="204" cy="105" r="58" fill="rgba(255,224,214,0.96)"/><path d="M144 112c-2-58 118-72 132 0-28-36-94-44-132 0z" fill="rgba(35,25,55,0.8)"/><ellipse cx="182" cy="112" rx="18" ry="24" fill="rgba(255,255,255,0.92)"/><ellipse cx="230" cy="112" rx="18" ry="24" fill="rgba(255,255,255,0.92)"/><circle cx="183" cy="115" r="9" fill="hsl(118 64% 32%)"/><circle cx="231" cy="115" r="9" fill="hsl(118 64% 32%)"/><path d="M166 178c30 18 62 18 88 0" stroke="rgba(65,20,55,0.64)" stroke-width="6" stroke-linecap="round"/>
    <rect x="0" y="0" width="420" height="300" rx="28" fill="none" stroke="rgba(255,255,255,0.22)"/>
    <rect x="0" y="0" width="420" height="300" rx="28" fill="url(#grain)" opacity="0.55"/>
    <text x="24" y="268" font-family="Arial, Helvetica, sans-serif" font-size="18" font-weight="700" fill="rgba(255,255,255,0.88)">90s Anime</text>
  </svg>
