<svg xmlns="http://www.w3.org/2000/svg" width="420" height="300" viewBox="0 0 420 300" role="img" aria-label="Illustration style preview">
    <defs>
      <linearGradient id="g" x1="0" y1="0" x2="1" y2="1"><stop offset="0" stop-color="hsl(336 72% 58%)"/><stop offset="0.55" stop-color="hsl(61 64% 32%)"/><stop offset="1" stop-color="hsl(226 56% 18%)"/></linearGradient>
      <radialGradient id="r" cx="35%" cy="28%" r="70%"><stop offset="0" stop-color="hsl(146 86% 72%)" stop-opacity="0.95"/><stop offset="0.55" stop-color="hsl(336 72% 58%)" stop-opacity="0.35"/><stop offset="1" stop-color="hsl(226 56% 18%)" stop-opacity="0"/></radialGradient>
      <filter id="soft"><feGaussianBlur stdDeviation="8"/></filter>
      <filter id="grain"><feTurbulence type="fractalNoise" baseFrequency="0.85" numOctaves="3" stitchTiles="stitch"/><feColorMatrix type="saturate" values="0"/><feComponentTransfer><feFuncA type="table" tableValues="0 0.18"/></feComponentTransfer></filter>
    </defs>
    <rect width="420" height="300" rx="28" fill="url(#g)"/>
    <rect width="420" height="300" rx="28" fill="url(#r)"/>
  <path d="M66 216C96 106 176 60 246 88c62 25 82 86 54 132" fill="none" stroke="rgba(255,255,255,0.88)" stroke-width="7" stroke-linecap="round"/><path d="M86 196c72-34 128-30 198 0M112 154c54-18 98-16 146 0" stroke="rgba(0,0,0,0.54)" stroke-width="5" stroke-linecap="round"/><path d="M68 68l274 160M100 48l244 118" stroke="rgba(255,255,255,0.18)" stroke-width="3"/>
    <rect x="0" y="0" width="420" height="300" rx="28" fill="none" stroke="rgba(255,255,255,0.22)"/>
    <rect x="0" y="0" width="420" height="300" rx="28" fill="url(#grain)" opacity="0.55"/>
    <text x="24" y="268" font-family="Arial, Helvetica, sans-serif" font-size="18" font-weight="700" fill="rgba(255,255,255,0.88)">Illustration</text>
  </svg>
